<svg xmlns="http://www.w3.org/2000/svg" xmlns:xlink="http://www.w3.org/1999/xlink" width="281.517" height="48.631" viewBox="0 0 281.517 48.631">
  <defs>
    <clipPath id="clip-path">
      <rect id="Rectangle_4" data-name="Rectangle 4" width="281.517" height="48.631" transform="translate(0 0)" fill="none"/>
    </clipPath>
  </defs>
  <g id="Group_10" data-name="Group 10" transform="translate(0 0)">
    <path id="Path_9" data-name="Path 9" d="M103.565,46.049V2.731H112l14.934,23.255,15.1-23.255h8.208V46.049H142.38V14.7l-15.5,24L111.431,14.758V46.049Z" fill="#fff"/>
    <g id="Group_9" data-name="Group 9">
      <g id="Group_8" data-name="Group 8" clip-path="url(#clip-path)">
        <path id="Path_10" data-name="Path 10" d="M168.4,47.074a11.776,11.776,0,0,1-8.236-2.821,9.632,9.632,0,0,1-3.107-7.495,10.287,10.287,0,0,1,1.653-5.843,11,11,0,0,1,4.674-3.875,16.693,16.693,0,0,1,7.068-1.4,22.137,22.137,0,0,1,8.663,1.653v-.114q0-4.159-2.194-6.327t-6.754-2.166a18.943,18.943,0,0,0-5.5.855,19.516,19.516,0,0,0-5.273,2.508V15.27a27.1,27.1,0,0,1,5.3-2.223,21.194,21.194,0,0,1,6.27-.912q7.294,0,11.228,3.762t3.933,10.772V46.048h-6.669l-.114-4.787a9.861,9.861,0,0,1-4.331,4.246,13.939,13.939,0,0,1-6.612,1.567M164.236,36.3a4.672,4.672,0,0,0,1.6,3.79,6.711,6.711,0,0,0,4.446,1.339,8.294,8.294,0,0,0,6.269-2.308,10.293,10.293,0,0,0,2.508-6.7,17.67,17.67,0,0,0-7.409-1.482,9.2,9.2,0,0,0-5.529,1.4,4.644,4.644,0,0,0-1.881,3.962" fill="#fff"/>
        <path id="Path_11" data-name="Path 11" d="M194.275,46.049V13.161h7.353l.057,6.84a11.888,11.888,0,0,1,3.99-5.358,9.863,9.863,0,0,1,6.041-1.994,16.5,16.5,0,0,1,2.166.17,9.245,9.245,0,0,1,1.995.457v7.352a17.063,17.063,0,0,0-2.394-.513,18.216,18.216,0,0,0-2.736-.228,7.929,7.929,0,0,0-6.526,2.765q-2.253,2.765-2.251,8.007v15.39Z" fill="#fff"/>
        <path id="Path_12" data-name="Path 12" d="M231.358,47.074a19.192,19.192,0,0,1-3.847-.427,24.753,24.753,0,0,1-3.99-1.169,18.7,18.7,0,0,1-3.334-1.652V37.1a18.4,18.4,0,0,0,10.829,3.591,10.888,10.888,0,0,0,4.9-.827,2.745,2.745,0,0,0,1.539-2.593,2.938,2.938,0,0,0-1.4-2.508,22.418,22.418,0,0,0-5.386-2.223q-5.586-1.766-7.894-4.1a8.606,8.606,0,0,1-2.308-6.327,8.827,8.827,0,0,1,3.362-7.295q3.363-2.679,9.177-2.679a19.729,19.729,0,0,1,5.073.769,21.261,21.261,0,0,1,4.958,1.967V21.6a15.36,15.36,0,0,0-4.645-2.251,17.544,17.544,0,0,0-5.215-.884q-5.358,0-5.358,3.249a2.655,2.655,0,0,0,.485,1.625,4.771,4.771,0,0,0,1.795,1.282,32.37,32.37,0,0,0,3.762,1.425,30.727,30.727,0,0,1,6.64,2.879,9.6,9.6,0,0,1,3.478,3.448,9.793,9.793,0,0,1,1.054,4.731,8.531,8.531,0,0,1-3.734,7.267q-3.733,2.706-9.946,2.707" fill="#fff"/>
        <path id="Path_13" data-name="Path 13" d="M251.707,46.049V2.731h7.7V17.892a10.151,10.151,0,0,1,4.1-4.246,12.321,12.321,0,0,1,6.155-1.51q5.7,0,8.778,3.619t3.078,10.4V46.049h-7.7V27.582q0-8.606-6.612-8.607a7.151,7.151,0,0,0-5.728,2.423,10.131,10.131,0,0,0-2.08,6.811v17.84Z" fill="#fff"/>
        <path id="Path_14" data-name="Path 14" d="M79.687,10.505,62.367.527a4.935,4.935,0,0,0-4.436,0L10.148,28.054,36.59,7.8,23.973.527a4.933,4.933,0,0,0-4.435,0L2.217,10.505A4.91,4.91,0,0,0,0,14.341V34.288a4.909,4.909,0,0,0,2.217,3.838L19.538,48.1a4.927,4.927,0,0,0,4.435,0L71.756,20.578,45.314,40.836,57.931,48.1a4.929,4.929,0,0,0,4.436,0l17.32-9.978A4.909,4.909,0,0,0,81.9,34.289V14.342a4.911,4.911,0,0,0-2.218-3.837" fill="#fff"/>
      </g>
    </g>
  </g>
</svg>
